<?xml version="1.0" standalone="no"?>
<!DOCTYPE svg PUBLIC "-//W3C//DTD SVG 20010904//EN"
 "http://www.w3.org/TR/2001/REC-SVG-20010904/DTD/svg10.dtd">
<svg version="1.0" xmlns="http://www.w3.org/2000/svg"
 width="512.000000pt" height="512.000000pt" viewBox="0 0 512.000000 512.000000"
 preserveAspectRatio="xMidYMid meet">
<metadata>
Created by potrace 1.14, written by Peter Selinger 2001-2017
</metadata>
<g transform="translate(0.000000,512.000000) scale(0.100000,-0.100000)"
fill="#000000" stroke="none">
<path d="M3086 4943 c-38 -10 -75 -49 -91 -97 -13 -38 -95 -146 -106 -140 -16
9 -83 15 -109 9 -36 -8 -97 -66 -133 -127 -26 -44 -73 -161 -82 -202 -2 -11
-6 -32 -9 -46 -26 -118 -34 -204 -23 -250 2 -8 7 -33 12 -55 12 -61 80 -185
128 -236 87 -92 194 -149 314 -165 62 -8 177 13 199 37 15 17 26 19 68 13 28
-4 56 -6 61 -5 6 0 50 3 98 5 48 3 91 7 96 10 7 5 68 -13 178 -52 56 -20 172
-126 174 -159 0 -10 2 -28 5 -41 l4 -22 -38 19 c-102 52 -241 71 -314 42 -16
-6 -28 -8 -28 -5 0 8 -91 -58 -116 -83 -11 -12 -29 -34 -40 -48 -10 -14 -27
-25 -36 -25 -9 0 -41 -19 -70 -43 l-53 -43 -62 32 c-53 27 -78 37 -113 48 -3
1 -9 4 -15 7 -5 3 -30 11 -55 18 -25 8 -61 19 -80 25 -19 7 -42 12 -50 11 -8
-1 -26 3 -40 8 -14 5 -34 11 -45 13 -11 1 -29 5 -40 7 -114 26 -359 26 -520 1
-55 -8 -275 -63 -289 -71 -6 -4 -18 -8 -26 -10 -16 -2 -16 -2 -150 -67 -315
-151 -581 -413 -736 -726 -65 -131 -66 -134 -93 -215 -60 -180 -84 -328 -84
-515 0 -191 19 -337 63 -475 33 -102 41 -126 63 -180 152 -368 488 -706 854
-859 80 -34 275 -97 291 -95 4 1 10 0 15 -1 23 -8 81 -19 137 -27 106 -15 459
-7 488 11 4 2 23 7 42 10 62 10 78 14 194 51 273 85 552 273 741 499 49 58
177 246 169 246 -4 0 -2 6 4 12 44 55 137 287 156 393 2 11 9 38 15 60 6 22
13 56 16 75 2 19 8 60 13 90 9 61 8 309 -2 381 -3 25 -11 61 -16 79 -6 19 -10
38 -10 42 0 4 66 60 147 125 198 158 209 170 236 261 34 118 6 267 -80 433
-45 86 -45 87 -29 119 29 59 70 217 68 265 -1 17 -3 82 -4 145 -2 78 -10 134
-22 175 -17 54 -48 111 -67 125 -4 3 -23 33 -43 67 -23 39 -58 79 -98 112 -35
27 -71 57 -80 65 -9 8 -33 19 -53 25 -20 5 -51 21 -68 34 -71 54 -221 104
-277 92 -14 -3 -40 0 -58 6 -34 11 -34 9 -14 94 26 116 -16 305 -90 399 -91
116 -140 155 -193 156 -15 0 -25 13 -38 48 -9 26 -27 54 -40 63 -25 18 -91 30
-121 22z"/>
</g>
</svg>
